<svg aria-hidden="true" style="position: absolute; width: 0; height: 0; overflow: hidden;" version="1.1" xmlns="http://www.w3.org/2000/svg" xmlns:xlink="http://www.w3.org/1999/xlink">
<defs>
<symbol id="icon-menu-05-1-converted" viewBox="0 0 32 32">
<path d="M3.443 10.308c-0.363 0.204-0.604 0.587-0.604 1.025s0.241 0.821 0.598 1.022l0.006 0.003 0.211 0.12h24.693l0.211-0.12c0.363-0.204 0.604-0.587 0.604-1.025s-0.241-0.821-0.598-1.022l-0.006-0.003-0.211-0.12h-24.693l-0.211 0.12zM3.443 19.641c-0.363 0.204-0.604 0.587-0.604 1.025s0.241 0.821 0.598 1.022l0.006 0.003 0.211 0.12h24.693l0.211-0.12c0.363-0.204 0.604-0.587 0.604-1.025s-0.241-0.821-0.598-1.022l-0.006-0.003-0.211-0.12h-24.693l-0.211 0.12z"></path>
</symbol>
</defs>
</svg>
